<svg width="32" height="34" viewBox="0 0 32 34" fill="none" xmlns="http://www.w3.org/2000/svg">
<mask id="mask0_1325_130" style="mask-type:luminance" maskUnits="userSpaceOnUse" x="9" y="0" width="23" height="34">
<path d="M25.3215 34C20.8702 34 17.0727 32.3351 13.929 29.0058C10.7704 25.692 9.19141 21.6889 9.19141 16.9958C9.19141 12.3106 10.7704 8.30736 13.929 4.99416C17.0727 1.66459 20.8702 0 25.3215 0C27.5103 0 29.6008 0.451685 31.601 1.34777L31.1346 2.48132C29.285 1.66456 27.3445 1.25214 25.3215 1.25214C21.1931 1.25214 17.6737 2.7903 14.771 5.87386C11.8458 8.94162 10.3873 12.6517 10.3873 16.9958C10.3873 21.3321 11.8458 25.042 14.771 28.1255C17.6737 31.2012 21.1931 32.7473 25.3215 32.7473C27.232 32.7473 29.0594 32.3827 30.8036 31.6536V17.5109H18.436V16.2587H31.9995V32.4934L31.6238 32.6523C29.6232 33.5479 27.5252 34 25.3215 34Z" fill="white"/>
</mask>
<g mask="url(#mask0_1325_130)">
<path d="M31.9995 0H9.19141V34H31.9995V0Z" fill="url(#paint0_linear_1325_130)"/>
</g>
<mask id="mask1_1325_130" style="mask-type:luminance" maskUnits="userSpaceOnUse" x="0" y="0" width="24" height="34">
<path d="M0 0.324707V33.6747H7.3096C11.664 33.6747 15.3864 32.0416 18.4847 28.7756C21.5676 25.5256 23.1094 21.6017 23.1094 16.9958C23.1094 12.3983 21.5676 8.47442 18.4847 5.22389C15.3864 1.95786 11.6641 0.324707 7.3096 0.324707H0ZM1.18844 32.422V1.57743H7.3096C11.3405 1.57743 14.7847 3.08358 17.6421 6.08781C20.5072 9.10013 21.944 12.7387 21.944 16.9958C21.944 21.2607 20.5072 24.8995 17.6421 27.9116C14.7847 30.9159 11.3405 32.422 7.3096 32.422H1.18844Z" fill="white"/>
</mask>
<g mask="url(#mask1_1325_130)">
<path d="M23.1094 0.324707H0V33.6747H23.1094V0.324707Z" fill="url(#paint1_linear_1325_130)"/>
</g>
<defs>
<linearGradient id="paint0_linear_1325_130" x1="20.5719" y1="-6.45595" x2="20.6169" y2="33.876" gradientUnits="userSpaceOnUse">
<stop stop-color="#FFFB90"/>
<stop offset="0.13" stop-color="#FBEC7A"/>
<stop offset="0.24" stop-color="#F8DC65"/>
<stop offset="0.33" stop-color="#C8A443"/>
<stop offset="0.49" stop-color="#996C22"/>
<stop offset="0.62" stop-color="#CAAA4D"/>
<stop offset="0.69" stop-color="#FBE878"/>
<stop offset="0.73" stop-color="#FDF491"/>
<stop offset="0.77" stop-color="#FFFFAA"/>
<stop offset="0.8" stop-color="#FDF491"/>
<stop offset="0.83" stop-color="#FBE878"/>
<stop offset="0.92" stop-color="#D0A549"/>
<stop offset="1" stop-color="#A4631B"/>
</linearGradient>
<linearGradient id="paint1_linear_1325_130" x1="11.5351" y1="-6.00755" x2="11.5726" y2="33.5491" gradientUnits="userSpaceOnUse">
<stop stop-color="#FFFB90"/>
<stop offset="0.13" stop-color="#FBEC7A"/>
<stop offset="0.24" stop-color="#F8DC65"/>
<stop offset="0.33" stop-color="#C8A443"/>
<stop offset="0.466346" stop-color="#996C22"/>
<stop offset="0.62" stop-color="#CAAA4D"/>
<stop offset="0.69" stop-color="#FBE878"/>
<stop offset="0.73" stop-color="#FDF491"/>
<stop offset="0.77" stop-color="#FFFFAA"/>
<stop offset="0.8" stop-color="#FDF491"/>
<stop offset="0.83" stop-color="#FBE878"/>
<stop offset="0.92" stop-color="#D0A549"/>
<stop offset="0.975962" stop-color="#A4631B"/>
</linearGradient>
</defs>
</svg>
