<svg width="50" height="43" viewBox="0 0 50 43" fill="none" xmlns="http://www.w3.org/2000/svg">
<g clip-path="url(#clip0_1325_107)">
<path d="M0.744141 39.4914C0.744141 39.4039 0.809378 39.3477 0.939848 39.3227L1.43227 39.2477C1.52907 39.2268 1.60273 39.1914 1.65323 39.1414C1.70794 39.0914 1.7353 39.0268 1.7353 38.9477V31.6039C1.7353 31.5206 1.70794 31.4539 1.65323 31.4039C1.60273 31.3539 1.52907 31.3185 1.43227 31.2977L0.939848 31.2227C0.809378 31.1977 0.744141 31.1414 0.744141 31.0539C0.744141 31.0039 0.760974 30.9664 0.794646 30.9414C0.832524 30.9122 0.887237 30.8977 0.958787 30.8977H3.73656C4.52781 30.8977 5.24328 31.0102 5.88303 31.2352C6.52697 31.4602 7.0804 31.7789 7.54338 32.1914C8.00636 32.6039 8.36197 33.0893 8.6103 33.6477C8.86283 34.206 8.98909 34.8206 8.98909 35.4914C8.98909 36.2956 8.80601 37.0102 8.43985 37.6352C8.07369 38.2602 7.54126 38.7518 6.84263 39.1102C6.14818 39.4685 5.30222 39.6477 4.30475 39.6477H0.958787C0.887237 39.6477 0.832524 39.6331 0.794646 39.6039C0.760974 39.5747 0.744141 39.5372 0.744141 39.4914ZM4.29843 39.2914C5.05601 39.2914 5.70626 39.1414 6.24919 38.8414C6.79631 38.5372 7.2151 38.0997 7.5055 37.5289C7.8001 36.9539 7.94742 36.2602 7.94742 35.4477C7.94742 34.8185 7.84641 34.2477 7.64439 33.7352C7.44656 33.2185 7.15828 32.7768 6.77949 32.4102C6.4049 32.0393 5.95035 31.7539 5.41586 31.5539C4.88555 31.3539 4.29001 31.2539 3.62924 31.2539H2.70752V38.8352C2.70752 38.9893 2.75803 39.1039 2.85904 39.1789C2.96426 39.2539 3.1263 39.2914 3.34515 39.2914H4.29843ZM13.4428 39.4414C14.0026 39.5414 14.4403 39.6643 14.756 39.8102C15.0716 39.956 15.2946 40.1289 15.4251 40.3289C15.5598 40.5289 15.6272 40.7581 15.6272 41.0164C15.6272 41.5122 15.3683 41.9185 14.8507 42.2352C14.3372 42.5518 13.6007 42.7102 12.6411 42.7102C11.9719 42.7102 11.4268 42.6435 11.006 42.5102C10.5893 42.3768 10.2799 42.1956 10.0779 41.9664C9.8801 41.7414 9.78121 41.4893 9.78121 41.2102C9.78121 40.8518 9.95798 40.5247 10.3115 40.2289C10.6692 39.9331 11.2879 39.7289 12.1676 39.6164L12.3191 39.7914C11.7172 39.8581 11.2627 40.0102 10.9555 40.2477C10.6524 40.4852 10.5009 40.756 10.5009 41.0602C10.5009 41.4435 10.6734 41.7581 11.0186 42.0039C11.3637 42.2497 11.9466 42.3727 12.7673 42.3727C13.2303 42.3727 13.6154 42.3247 13.9226 42.2289C14.2298 42.1372 14.4592 42.0039 14.6108 41.8289C14.7665 41.6581 14.8443 41.456 14.8443 41.2227C14.8443 41.056 14.7917 40.9039 14.6865 40.7664C14.5855 40.6289 14.3982 40.5039 14.1246 40.3914C13.8553 40.2789 13.4681 40.1768 12.963 40.0852C12.3527 39.9727 11.8919 39.8602 11.5805 39.7477C11.269 39.6352 11.0585 39.5164 10.9491 39.3914C10.8397 39.2664 10.785 39.1227 10.785 38.9602C10.785 38.8393 10.8144 38.7227 10.8734 38.6102C10.9365 38.4935 11.0417 38.3872 11.189 38.2914C11.3406 38.1914 11.5489 38.106 11.814 38.0352L12.0034 38.1102C11.8224 38.1977 11.6941 38.2831 11.6183 38.3664C11.5426 38.4497 11.5047 38.5393 11.5047 38.6352C11.5047 38.7185 11.5405 38.8018 11.612 38.8852C11.6878 38.9643 11.8624 39.0497 12.136 39.1414C12.4095 39.2289 12.8452 39.3289 13.4428 39.4414ZM13.8532 34.3789L14.0489 34.0664C14.213 33.7872 14.3982 33.5768 14.6044 33.4352C14.8148 33.2893 15.0337 33.2164 15.261 33.2164C15.4714 33.2164 15.6419 33.2727 15.7724 33.3852C15.9028 33.4935 15.9681 33.6352 15.9681 33.8102C15.9681 33.9518 15.9323 34.0664 15.8608 34.1539C15.7934 34.2372 15.6987 34.2789 15.5767 34.2789C15.4883 34.2789 15.4146 34.2539 15.3557 34.2039C15.2968 34.1539 15.2441 34.0977 15.1979 34.0352C15.1558 33.9685 15.1074 33.9102 15.0527 33.8602C14.9979 33.8102 14.9264 33.7852 14.838 33.7852C14.7286 33.7852 14.6213 33.8289 14.5161 33.9164C14.4108 34.0039 14.2719 34.1831 14.0994 34.4539L13.8532 34.3789ZM15.1347 35.9789C15.1347 36.4456 15.0211 36.856 14.7938 37.2102C14.5666 37.5643 14.2572 37.8414 13.8658 38.0414C13.4786 38.2372 13.0388 38.3352 12.5464 38.3352C12.0581 38.3352 11.6246 38.2372 11.2459 38.0414C10.8671 37.8456 10.5682 37.5789 10.3494 37.2414C10.1347 36.9039 10.0274 36.5268 10.0274 36.1102C10.0274 35.6393 10.1389 35.2289 10.362 34.8789C10.5893 34.5247 10.8986 34.2477 11.29 34.0477C11.6815 33.8477 12.1234 33.7477 12.6158 33.7477C13.1082 33.7477 13.5417 33.8456 13.9163 34.0414C14.2951 34.2372 14.5918 34.5039 14.8065 34.8414C15.0253 35.1789 15.1347 35.5581 15.1347 35.9789ZM12.4517 34.0852C12.1234 34.0893 11.8456 34.1685 11.6183 34.3227C11.3911 34.4727 11.2206 34.6872 11.107 34.9664C10.9933 35.2456 10.9449 35.5789 10.9618 35.9664C10.9744 36.3747 11.0543 36.7331 11.2017 37.0414C11.3532 37.3456 11.5573 37.5831 11.814 37.7539C12.0749 37.9206 12.3738 37.9997 12.7105 37.9914C13.1987 37.9831 13.5733 37.8122 13.8342 37.4789C14.0994 37.1456 14.2214 36.6893 14.2004 36.1102C14.1793 35.4935 14.0089 34.9997 13.689 34.6289C13.3734 34.2581 12.9609 34.0768 12.4517 34.0852ZM18.3885 34.0414V38.9539C18.3885 39.0497 18.4117 39.1227 18.458 39.1727C18.5043 39.2227 18.5716 39.2581 18.66 39.2789L19.0009 39.3414C19.0683 39.3539 19.1167 39.3727 19.1461 39.3977C19.1798 39.4227 19.1966 39.4581 19.1966 39.5039C19.1966 39.5456 19.1777 39.581 19.1398 39.6102C19.1062 39.6352 19.0535 39.6477 18.982 39.6477H16.8986C16.8313 39.6477 16.7787 39.6352 16.7408 39.6102C16.7072 39.581 16.6903 39.5456 16.6903 39.5039C16.6903 39.4622 16.705 39.4289 16.7345 39.4039C16.7682 39.3789 16.8166 39.3602 16.8797 39.3477L17.2459 39.2789C17.33 39.2581 17.3953 39.2227 17.4416 39.1727C17.4879 39.1227 17.511 39.0518 17.511 38.9602V34.7414C17.511 34.6664 17.4963 34.6102 17.4668 34.5727C17.4416 34.5352 17.3932 34.5143 17.3216 34.5102L16.7913 34.5039C16.7282 34.4997 16.684 34.4872 16.6587 34.4664C16.6335 34.4456 16.6209 34.4185 16.6209 34.3852C16.6209 34.3435 16.6335 34.3102 16.6587 34.2852C16.6882 34.2602 16.7387 34.2352 16.8103 34.2102L17.7509 33.9039C17.8562 33.8664 17.9403 33.8414 18.0034 33.8289C18.0666 33.8122 18.1192 33.8039 18.1613 33.8039C18.237 33.8039 18.2938 33.8247 18.3317 33.8664C18.3696 33.9081 18.3885 33.9664 18.3885 34.0414ZM17.814 32.4477C17.612 32.4477 17.4437 32.3852 17.309 32.2602C17.1785 32.1352 17.1133 31.981 17.1133 31.7977C17.1133 31.6102 17.1785 31.456 17.309 31.3352C17.4437 31.2102 17.612 31.1477 17.814 31.1477C18.0245 31.1477 18.1949 31.2102 18.3254 31.3352C18.4601 31.456 18.5274 31.6102 18.5274 31.7977C18.5274 31.981 18.4601 32.1352 18.3254 32.2602C18.1908 32.3852 18.0203 32.4477 17.814 32.4477ZM30.514 39.5539C30.514 39.6664 30.495 39.7456 30.4572 39.7914C30.4235 39.8372 30.3709 39.8602 30.2993 39.8602C30.2236 39.8602 30.1626 39.8289 30.1163 39.7664C30.07 39.7081 30.03 39.6393 29.9963 39.5602C29.9627 39.481 29.9269 39.4102 29.889 39.3477C29.8554 39.2852 29.809 39.2539 29.7501 39.2539C29.6743 39.2539 29.5776 39.2852 29.4597 39.3477C29.3419 39.4102 29.1945 39.481 29.0178 39.5602C28.841 39.6352 28.6222 39.7039 28.3612 39.7664C28.1045 39.8289 27.7993 39.8602 27.4458 39.8602C26.7724 39.8602 26.1664 39.7477 25.6276 39.5227C25.0931 39.2935 24.6365 38.9747 24.2577 38.5664C23.8831 38.1581 23.5948 37.6768 23.3928 37.1227C23.195 36.5685 23.0961 35.9622 23.0961 35.3039C23.0961 34.6372 23.1992 34.0247 23.4054 33.4664C23.6159 32.9081 23.9126 32.4227 24.2956 32.0102C24.6786 31.5977 25.1268 31.2789 25.6403 31.0539C26.1579 30.8247 26.7219 30.7102 27.3322 30.7102C27.8078 30.7102 28.1971 30.7602 28.5001 30.8602C28.8031 30.956 29.0367 31.0539 29.2009 31.1539C29.365 31.2497 29.4849 31.2977 29.5607 31.2977C29.6491 31.2977 29.7101 31.2581 29.7438 31.1789C29.7817 31.0956 29.8175 31.0143 29.8511 30.9352C29.8848 30.8518 29.9458 30.8102 30.0342 30.8102C30.0805 30.8102 30.1184 30.8247 30.1478 30.8539C30.1773 30.8789 30.2026 30.9247 30.2236 30.9914L30.8865 33.0977C30.9075 33.1602 30.9033 33.2164 30.8738 33.2664C30.8486 33.3122 30.8044 33.3372 30.7413 33.3414C30.6866 33.3497 30.6361 33.3414 30.5897 33.3164C30.5477 33.2914 30.514 33.2518 30.4887 33.1977C30.2488 32.6935 29.9774 32.2872 29.6743 31.9789C29.3713 31.6664 29.0283 31.4393 28.6453 31.2977C28.2623 31.1518 27.8352 31.0789 27.3637 31.0789C26.745 31.0789 26.1874 31.2435 25.6908 31.5727C25.1983 31.9018 24.8069 32.3643 24.5165 32.9602C24.2304 33.556 24.0872 34.256 24.0872 35.0602C24.0872 35.9685 24.2451 36.7477 24.5607 37.3977C24.8764 38.0435 25.3057 38.5393 25.8486 38.8852C26.3915 39.231 27.0018 39.4039 27.6794 39.4039C27.9614 39.4039 28.2203 39.3831 28.4559 39.3414C28.6916 39.2956 28.8936 39.2289 29.062 39.1414C29.2304 39.0539 29.3608 38.9477 29.4534 38.8227C29.546 38.6935 29.5923 38.5456 29.5923 38.3789V36.7414C29.5923 36.6372 29.5628 36.5581 29.5039 36.5039C29.4492 36.4497 29.3419 36.4102 29.1819 36.3852L28.639 36.3039C28.5675 36.2914 28.5107 36.2706 28.4685 36.2414C28.4307 36.2122 28.4117 36.1768 28.4117 36.1352C28.4117 36.0893 28.4307 36.0539 28.4685 36.0289C28.5107 36.0039 28.5717 35.9914 28.6516 35.9914H31.2463C31.3263 35.9914 31.3852 36.0039 31.4231 36.0289C31.461 36.0539 31.4799 36.0893 31.4799 36.1352C31.4799 36.1768 31.4652 36.2102 31.4357 36.2352C31.4063 36.256 31.3516 36.2789 31.2716 36.3039L30.918 36.3789C30.7665 36.4122 30.6613 36.4539 30.6024 36.5039C30.5435 36.5539 30.514 36.6331 30.514 36.7414V39.5539ZM35.4464 33.7477C36.0272 33.7477 36.5427 33.8768 36.9931 34.1352C37.4434 34.3893 37.7948 34.7435 38.0474 35.1977C38.2999 35.6518 38.4262 36.1747 38.4262 36.7664C38.4262 37.3497 38.2978 37.8685 38.0411 38.3227C37.7885 38.7768 37.4371 39.1331 36.9868 39.3914C36.5364 39.6497 36.0145 39.7789 35.4211 39.7789C34.8403 39.7789 34.3268 39.6518 33.8807 39.3977C33.4345 39.1393 33.0831 38.7831 32.8264 38.3289C32.5696 37.8706 32.4413 37.3497 32.4413 36.7664C32.4413 36.1789 32.5676 35.6581 32.8201 35.2039C33.0768 34.7497 33.4304 34.3935 33.8807 34.1352C34.331 33.8768 34.8529 33.7477 35.4464 33.7477ZM35.8757 39.3852C36.2881 39.331 36.6269 39.1789 36.8921 38.9289C37.1572 38.6789 37.3403 38.3477 37.4413 37.9352C37.5423 37.5185 37.5528 37.0414 37.4729 36.5039C37.3887 35.9497 37.2309 35.4872 36.9994 35.1164C36.7721 34.7456 36.4859 34.4768 36.1408 34.3102C35.7957 34.1435 35.4148 34.0872 34.9981 34.1414C34.5857 34.1956 34.2469 34.3477 33.9817 34.5977C33.7166 34.8477 33.5314 35.181 33.4262 35.5977C33.3252 36.0102 33.3167 36.4872 33.4009 37.0289C33.4809 37.5789 33.6366 38.0393 33.8681 38.4102C34.0995 38.781 34.3878 39.0497 34.733 39.2164C35.0781 39.3831 35.459 39.4393 35.8757 39.3852ZM41.3107 30.7414V38.9539C41.3107 39.0497 41.3338 39.1227 41.3801 39.1727C41.4306 39.2227 41.4979 39.2581 41.5821 39.2789L41.923 39.3414C41.9904 39.3539 42.0387 39.3727 42.0682 39.3977C42.1019 39.4227 42.1187 39.4581 42.1187 39.5039C42.1187 39.5456 42.0998 39.581 42.0619 39.6102C42.0282 39.6352 41.9756 39.6477 41.9041 39.6477H39.8208C39.7534 39.6477 39.7029 39.6352 39.6692 39.6102C39.6356 39.581 39.6187 39.5456 39.6187 39.5039C39.6187 39.4622 39.6334 39.4289 39.6629 39.4039C39.6966 39.3789 39.745 39.3581 39.8081 39.3414L40.168 39.2789C40.2521 39.2581 40.3174 39.2227 40.3637 39.1727C40.4142 39.1227 40.4394 39.0518 40.4394 38.9602V31.4414C40.4394 31.3622 40.4247 31.306 40.3953 31.2727C40.3658 31.2352 40.3152 31.2143 40.2437 31.2102L39.7197 31.2039C39.6566 31.1956 39.6103 31.181 39.5809 31.1602C39.5556 31.1393 39.543 31.1122 39.543 31.0789C39.543 31.0414 39.5556 31.0102 39.5809 30.9852C39.6103 30.956 39.6608 30.931 39.7324 30.9102L40.6793 30.5977C40.7804 30.5643 40.8624 30.5414 40.9256 30.5289C40.9887 30.5122 41.0413 30.5039 41.0834 30.5039C41.1591 30.5039 41.216 30.5247 41.2538 30.5664C41.2917 30.6039 41.3107 30.6622 41.3107 30.7414ZM47.7779 38.6602L47.7589 38.6102V31.4414C47.7589 31.3622 47.7442 31.306 47.7147 31.2727C47.6852 31.2352 47.6347 31.2143 47.5632 31.2102L47.0392 31.2039C46.9761 31.1956 46.9298 31.181 46.9004 31.1602C46.8751 31.1393 46.8625 31.1122 46.8625 31.0789C46.8625 31.0414 46.8751 31.0102 46.9004 30.9852C46.9298 30.956 46.9803 30.931 47.0519 30.9102L47.9988 30.5977C48.0998 30.5643 48.1819 30.5414 48.245 30.5289C48.3082 30.5122 48.3629 30.5039 48.4092 30.5039C48.4849 30.5039 48.5396 30.5247 48.5733 30.5664C48.6112 30.6039 48.6301 30.6622 48.6301 30.7414V38.9539C48.6301 39.0497 48.6533 39.1227 48.6996 39.1727C48.7501 39.2227 48.8174 39.2581 48.9016 39.2789L49.2425 39.3414C49.3098 39.3539 49.3604 39.3727 49.394 39.3977C49.4277 39.4227 49.4445 39.4581 49.4445 39.5039C49.4445 39.5456 49.4256 39.581 49.3877 39.6102C49.354 39.6352 49.2993 39.6477 49.2236 39.6477H48.2387C48.083 39.6477 47.9673 39.6102 47.8915 39.5352C47.8158 39.4602 47.7779 39.3372 47.7779 39.1664V38.6602ZM43.1504 36.8727C43.1504 36.2227 43.2766 35.6643 43.5291 35.1977C43.7859 34.731 44.1268 34.3727 44.5519 34.1227C44.9812 33.8685 45.4525 33.7414 45.966 33.7414C46.4626 33.7414 46.9067 33.8664 47.2981 34.1164C47.6895 34.3664 47.9988 34.7143 48.2261 35.1602L48.043 35.4164C47.8241 35.0122 47.5422 34.7018 47.1971 34.4852C46.8519 34.2643 46.4816 34.1539 46.086 34.1539C45.7114 34.1539 45.3726 34.2518 45.0695 34.4477C44.7665 34.6435 44.5245 34.9352 44.3435 35.3227C44.1668 35.7102 44.0784 36.1893 44.0784 36.7602C44.0784 37.3102 44.1625 37.7747 44.3309 38.1539C44.4992 38.5289 44.7286 38.8164 45.019 39.0164C45.3136 39.2122 45.6461 39.3102 46.0165 39.3102C46.3869 39.3102 46.7404 39.2081 47.0771 39.0039C47.418 38.7997 47.7252 38.4997 47.9988 38.1039L48.1251 38.3789C47.8094 38.8331 47.4433 39.181 47.0266 39.4227C46.6141 39.6602 46.1722 39.7789 45.7009 39.7789C45.2084 39.7789 44.7686 39.656 44.3814 39.4102C43.9984 39.1602 43.6975 38.8164 43.4786 38.3789C43.2597 37.9414 43.1504 37.4393 43.1504 36.8727Z" fill="url(#paint0_linear_1325_107)"/>
<mask id="mask0_1325_107" style="mask-type:luminance" maskUnits="userSpaceOnUse" x="19" y="0" width="19" height="27">
<path d="M32.1037 26.6394C28.591 26.6394 25.5943 25.3349 23.1135 22.7264C20.6211 20.13 19.375 16.9934 19.375 13.3164C19.375 9.64545 20.6211 6.5089 23.1135 3.91298C25.5943 1.30422 28.591 0 32.1037 0C33.8309 0 35.4806 0.353899 37.059 1.05599L36.6909 1.94414C35.2313 1.3042 33.7001 0.981065 32.1037 0.981065C28.8458 0.981065 26.0686 2.18623 23.778 4.60223C21.4696 7.00585 20.3187 9.9127 20.3187 13.3164C20.3187 16.7139 21.4696 19.6206 23.778 22.0366C26.0686 24.4465 28.8458 25.6579 32.1037 25.6579C33.6113 25.6579 35.0533 25.3721 36.4297 24.8009V13.7199H26.6701V12.7388H37.3734V25.4589L37.0769 25.5835C35.4982 26.2851 33.8427 26.6394 32.1037 26.6394Z" fill="white"/>
</mask>
<g mask="url(#mask0_1325_107)">
<path d="M37.3734 0H19.375V26.6394H37.3734V0Z" fill="url(#paint1_linear_1325_107)"/>
</g>
<mask id="mask1_1325_107" style="mask-type:luminance" maskUnits="userSpaceOnUse" x="12" y="0" width="19" height="27">
<path d="M12.1211 0.254395V26.3845H17.8893C21.3254 26.3845 24.2629 25.1049 26.7078 22.5459C29.1406 19.9996 30.3573 16.9251 30.3573 13.3164C30.3573 9.71418 29.1406 6.63978 26.7078 4.09296C24.2629 1.53399 21.3255 0.254395 17.8893 0.254395H12.1211ZM13.0589 25.4029V1.23592H17.8893C21.0702 1.23592 23.7881 2.416 26.0429 4.76984C28.3038 7.13003 29.4376 9.98088 29.4376 13.3164C29.4376 16.658 28.3038 19.509 26.0429 21.869C23.7881 24.2229 21.0702 25.4029 17.8893 25.4029H13.0589Z" fill="white"/>
</mask>
<g mask="url(#mask1_1325_107)">
<path d="M30.3573 0.254395H12.1211V26.3845H30.3573V0.254395Z" fill="url(#paint2_linear_1325_107)"/>
</g>
</g>
<defs>
<linearGradient id="paint0_linear_1325_107" x1="20.2012" y1="30.7501" x2="20.9438" y2="40.0013" gradientUnits="userSpaceOnUse">
<stop stop-color="#FAE571"/>
<stop offset="1" stop-color="#A4631B"/>
</linearGradient>
<linearGradient id="paint1_linear_1325_107" x1="28.3556" y1="-5.0583" x2="28.3906" y2="26.5422" gradientUnits="userSpaceOnUse">
<stop stop-color="#FFFB90"/>
<stop offset="0.13" stop-color="#FBEC7A"/>
<stop offset="0.24" stop-color="#F8DC65"/>
<stop offset="0.33" stop-color="#C8A443"/>
<stop offset="0.49" stop-color="#996C22"/>
<stop offset="0.62" stop-color="#CAAA4D"/>
<stop offset="0.69" stop-color="#FBE878"/>
<stop offset="0.73" stop-color="#FDF491"/>
<stop offset="0.77" stop-color="#FFFFAA"/>
<stop offset="0.8" stop-color="#FDF491"/>
<stop offset="0.83" stop-color="#FBE878"/>
<stop offset="0.92" stop-color="#D0A549"/>
<stop offset="1" stop-color="#A4631B"/>
</linearGradient>
<linearGradient id="paint2_linear_1325_107" x1="21.2237" y1="-4.707" x2="21.2529" y2="26.2861" gradientUnits="userSpaceOnUse">
<stop stop-color="#FFFB90"/>
<stop offset="0.13" stop-color="#FBEC7A"/>
<stop offset="0.24" stop-color="#F8DC65"/>
<stop offset="0.33" stop-color="#C8A443"/>
<stop offset="0.466346" stop-color="#996C22"/>
<stop offset="0.62" stop-color="#CAAA4D"/>
<stop offset="0.69" stop-color="#FBE878"/>
<stop offset="0.73" stop-color="#FDF491"/>
<stop offset="0.77" stop-color="#FFFFAA"/>
<stop offset="0.8" stop-color="#FDF491"/>
<stop offset="0.83" stop-color="#FBE878"/>
<stop offset="0.92" stop-color="#D0A549"/>
<stop offset="0.975962" stop-color="#A4631B"/>
</linearGradient>
<clipPath id="clip0_1325_107">
<rect width="50" height="43" fill="white"/>
</clipPath>
</defs>
</svg>
