<svg width="150" height="130" viewBox="0 0 150 130" fill="none" xmlns="http://www.w3.org/2000/svg">
<path d="M2.23438 119.392C2.23438 119.128 2.43009 118.958 2.8215 118.882L4.29877 118.656C4.58918 118.593 4.81013 118.485 4.96165 118.334C5.12578 118.183 5.20786 117.988 5.20786 117.749V95.5465C5.20786 95.2945 5.12578 95.093 4.96165 94.9419C4.81013 94.7907 4.58918 94.6835 4.29877 94.6207L2.8215 94.3939C2.43009 94.3183 2.23438 94.1483 2.23438 93.8837C2.23438 93.7326 2.28488 93.6192 2.38589 93.5436C2.49953 93.4553 2.66366 93.4114 2.87831 93.4114H11.2116C13.5854 93.4114 15.7318 93.7515 17.651 94.4317C19.5829 95.1119 21.2432 96.0756 22.6321 97.3227C24.021 98.5698 25.0879 100.037 25.8329 101.725C26.5904 103.413 26.9692 105.271 26.9692 107.299C26.9692 109.731 26.42 111.891 25.3215 113.781C24.223 115.67 22.6257 117.156 20.5298 118.24C18.4465 119.323 15.9086 119.865 12.9162 119.865H2.87831C2.66366 119.865 2.49953 119.821 2.38589 119.733C2.28488 119.644 2.23438 119.531 2.23438 119.392ZM12.8973 118.788C15.17 118.788 17.1207 118.334 18.7495 117.427C20.3909 116.508 21.6473 115.185 22.5185 113.459C23.4023 111.721 23.8442 109.624 23.8442 107.167C23.8442 105.265 23.5412 103.539 22.9351 101.99C22.3416 100.428 21.4768 99.0925 20.3404 97.984C19.2166 96.8628 17.853 96 16.2495 95.3954C14.6586 94.7907 12.872 94.4884 10.8897 94.4884H8.12453V117.408C8.12453 117.874 8.27604 118.221 8.57907 118.448C8.89472 118.674 9.38084 118.788 10.0374 118.788H12.8973ZM40.3304 119.241C42.0097 119.544 43.3229 119.915 44.2698 120.356C45.2168 120.797 45.8859 121.32 46.2774 121.924C46.6813 122.529 46.8835 123.222 46.8835 124.003C46.8835 125.502 46.1069 126.73 44.5539 127.688C43.0135 128.645 40.8039 129.124 37.9251 129.124C35.9176 129.124 34.2824 128.922 33.0198 128.519C31.7698 128.116 30.8418 127.568 30.2357 126.875C29.6423 126.195 29.3456 125.433 29.3456 124.589C29.3456 123.505 29.8759 122.516 30.9365 121.622C32.0097 120.728 33.8657 120.11 36.5047 119.77L36.9592 120.299C35.1536 120.501 33.79 120.961 32.8683 121.679C31.9592 122.397 31.5047 123.216 31.5047 124.135C31.5047 125.294 32.0223 126.245 33.0577 126.988C34.093 127.731 35.8418 128.103 38.3039 128.103C39.6927 128.103 40.848 127.958 41.7698 127.669C42.6915 127.391 43.3797 126.988 43.8342 126.459C44.3013 125.943 44.535 125.332 44.535 124.626C44.535 124.122 44.3771 123.663 44.0615 123.247C43.7585 122.831 43.1965 122.454 42.3759 122.113C41.5677 121.773 40.4062 121.465 38.891 121.188C37.0601 120.847 35.6776 120.507 34.7433 120.167C33.8089 119.827 33.1776 119.468 32.8494 119.09C32.521 118.712 32.3569 118.278 32.3569 117.786C32.3569 117.421 32.4453 117.068 32.6221 116.728C32.8115 116.375 33.1271 116.054 33.5691 115.765C34.0236 115.462 34.6486 115.204 35.4441 114.99L36.0123 115.217C35.4692 115.481 35.0842 115.739 34.8569 115.991C34.6297 116.243 34.516 116.514 34.516 116.804C34.516 117.056 34.6233 117.308 34.838 117.56C35.0653 117.799 35.5892 118.057 36.41 118.334C37.2306 118.599 38.5374 118.901 40.3304 119.241ZM41.5615 103.936L42.1486 102.991C42.641 102.147 43.1965 101.511 43.8153 101.083C44.4465 100.642 45.1032 100.422 45.785 100.422C46.4162 100.422 46.9276 100.592 47.3191 100.932C47.7104 101.259 47.9062 101.688 47.9062 102.217C47.9062 102.645 47.7988 102.991 47.5842 103.256C47.3821 103.508 47.098 103.634 46.7319 103.634C46.4668 103.634 46.2457 103.558 46.0691 103.407C45.8923 103.256 45.7344 103.086 45.5956 102.897C45.4692 102.695 45.3241 102.519 45.16 102.368C44.9957 102.217 44.7812 102.141 44.516 102.141C44.1877 102.141 43.8657 102.273 43.5501 102.538C43.2344 102.802 42.8177 103.344 42.3001 104.163L41.5615 103.936ZM45.4062 108.773C45.4062 110.184 45.0653 111.425 44.3835 112.496C43.7016 113.566 42.7736 114.404 41.5994 115.009C40.4377 115.601 39.1183 115.897 37.641 115.897C36.1763 115.897 34.8759 115.601 33.7395 115.009C32.6032 114.417 31.7066 113.61 31.0501 112.59C30.4062 111.57 30.0842 110.43 30.0842 109.17C30.0842 107.747 30.4188 106.506 31.088 105.448C31.7698 104.377 32.6979 103.539 33.8721 102.935C35.0463 102.33 36.3721 102.028 37.8494 102.028C39.3266 102.028 40.6271 102.324 41.7509 102.916C42.8873 103.508 43.7774 104.314 44.4213 105.334C45.0779 106.355 45.4062 107.501 45.4062 108.773ZM37.3569 103.048C36.3721 103.061 35.5388 103.3 34.8569 103.766C34.1751 104.219 33.6638 104.868 33.3229 105.712C32.982 106.556 32.8366 107.564 32.8873 108.735C32.9251 109.97 33.165 111.053 33.607 111.985C34.0615 112.905 34.6738 113.623 35.4441 114.14C36.2268 114.643 37.1233 114.883 38.1335 114.858C39.598 114.832 40.7218 114.316 41.5047 113.308C42.3001 112.3 42.6662 110.921 42.6032 109.17C42.54 107.306 42.0286 105.813 41.0691 104.692C40.1221 103.571 38.8847 103.023 37.3569 103.048ZM55.1676 102.916V117.767C55.1676 118.057 55.2371 118.278 55.3759 118.429C55.5148 118.58 55.7168 118.687 55.982 118.75L57.0047 118.939C57.2068 118.977 57.352 119.033 57.4403 119.109C57.5413 119.185 57.5918 119.292 57.5918 119.43C57.5918 119.556 57.535 119.663 57.4213 119.751C57.3204 119.827 57.1626 119.865 56.9479 119.865H50.6979C50.4959 119.865 50.338 119.827 50.2244 119.751C50.1235 119.663 50.0729 119.556 50.0729 119.43C50.0729 119.304 50.1171 119.204 50.2054 119.128C50.3065 119.052 50.4516 118.996 50.641 118.958L51.7395 118.75C51.9921 118.687 52.1879 118.58 52.3266 118.429C52.4656 118.278 52.535 118.063 52.535 117.786V105.032C52.535 104.805 52.4909 104.635 52.4024 104.522C52.3266 104.408 52.1815 104.345 51.9668 104.333L50.3759 104.314C50.1865 104.301 50.0539 104.263 49.9782 104.201C49.9024 104.138 49.8645 104.056 49.8645 103.955C49.8645 103.829 49.9024 103.728 49.9782 103.653C50.0666 103.577 50.2182 103.501 50.4327 103.426L53.2547 102.5C53.5704 102.387 53.8229 102.311 54.0123 102.273C54.2016 102.223 54.3595 102.198 54.4857 102.198C54.713 102.198 54.8835 102.261 54.9971 102.387C55.1107 102.513 55.1676 102.689 55.1676 102.916ZM53.4441 98.0974C52.838 98.0974 52.333 97.9084 51.9289 97.5305C51.5376 97.1526 51.3418 96.6864 51.3418 96.1323C51.3418 95.5654 51.5376 95.0992 51.9289 94.734C52.333 94.3561 52.838 94.1672 53.4441 94.1672C54.0754 94.1672 54.5868 94.3561 54.9782 94.734C55.3823 95.0992 55.5842 95.5654 55.5842 96.1323C55.5842 96.6864 55.3823 97.1526 54.9782 97.5305C54.5742 97.9084 54.0629 98.0974 53.4441 98.0974ZM91.5439 119.581C91.5439 119.922 91.4871 120.161 91.3735 120.299C91.2726 120.438 91.1147 120.507 90.9 120.507C90.6727 120.507 90.4897 120.413 90.3507 120.224C90.212 120.047 90.092 119.84 89.9909 119.6C89.89 119.361 89.7826 119.147 89.6689 118.958C89.568 118.769 89.4291 118.674 89.2523 118.674C89.025 118.674 88.7347 118.769 88.381 118.958C88.0276 119.147 87.5856 119.361 87.0553 119.6C86.525 119.827 85.8685 120.035 85.0856 120.224C84.3154 120.413 83.4 120.507 82.3394 120.507C80.3192 120.507 78.501 120.167 76.8848 119.487C75.2813 118.794 73.9113 117.83 72.775 116.596C71.6513 115.361 70.7863 113.906 70.1803 112.231C69.587 110.556 69.2901 108.723 69.2901 106.733C69.2901 104.717 69.5995 102.865 70.2182 101.177C70.8495 99.4893 71.7397 98.0218 72.8886 96.7747C74.0377 95.5276 75.3824 94.564 76.9227 93.8837C78.4757 93.1908 80.1677 92.8445 81.9985 92.8445C83.4253 92.8445 84.5932 92.9957 85.5023 93.298C86.4113 93.5876 87.1121 93.8837 87.6045 94.1861C88.097 94.4757 88.4568 94.6207 88.6841 94.6207C88.9492 94.6207 89.1324 94.5009 89.2333 94.2616C89.347 94.0097 89.4544 93.764 89.5553 93.5247C89.6563 93.2727 89.8394 93.1468 90.1045 93.1468C90.2435 93.1468 90.3571 93.1908 90.4454 93.2791C90.5339 93.3547 90.6097 93.4931 90.6727 93.6948L92.6613 100.063C92.7245 100.251 92.712 100.422 92.6235 100.573C92.5477 100.711 92.4151 100.787 92.2257 100.799C92.0617 100.825 91.9101 100.799 91.7712 100.724C91.645 100.648 91.5439 100.529 91.4682 100.365C90.7485 98.8405 89.9341 97.6123 89.025 96.6802C88.1159 95.7355 87.087 95.0489 85.9379 94.6207C84.7889 94.1797 83.5074 93.9593 82.0932 93.9593C80.2371 93.9593 78.5642 94.4568 77.0742 95.452C75.597 96.4472 74.4227 97.8454 73.5515 99.6468C72.693 101.448 72.2636 103.564 72.2636 105.996C72.2636 108.742 72.7371 111.097 73.6841 113.063C74.631 115.015 75.9189 116.514 77.5477 117.56C79.1765 118.605 81.0074 119.128 83.0401 119.128C83.8862 119.128 84.6627 119.065 85.3697 118.939C86.0768 118.8 86.6829 118.599 87.1879 118.334C87.693 118.07 88.0844 117.749 88.3621 117.371C88.64 116.98 88.7788 116.533 88.7788 116.029V111.078C88.7788 110.763 88.6904 110.524 88.5136 110.36C88.3495 110.197 88.0276 110.077 87.5477 110.001L85.9189 109.756C85.7044 109.718 85.5339 109.655 85.4076 109.567C85.2939 109.479 85.2371 109.372 85.2371 109.246C85.2371 109.107 85.2939 109 85.4076 108.924C85.5339 108.849 85.717 108.811 85.9568 108.811H93.7409C93.9809 108.811 94.1576 108.849 94.2712 108.924C94.3848 109 94.4416 109.107 94.4416 109.246C94.4416 109.372 94.3976 109.472 94.3091 109.548C94.2207 109.611 94.0566 109.68 93.8166 109.756L92.756 109.983C92.3015 110.083 91.9859 110.209 91.8091 110.36C91.6324 110.512 91.5439 110.751 91.5439 111.078V119.581ZM106.341 102.028C108.083 102.028 109.63 102.418 110.981 103.199C112.332 103.968 113.387 105.038 114.144 106.411C114.902 107.784 115.28 109.365 115.28 111.154C115.28 112.918 114.895 114.486 114.125 115.859C113.368 117.232 112.313 118.309 110.962 119.09C109.611 119.871 108.046 120.262 106.265 120.262C104.523 120.262 102.982 119.877 101.644 119.109C100.306 118.328 99.2513 117.251 98.4812 115.878C97.7109 114.492 97.3259 112.918 97.3259 111.154C97.3259 109.378 97.7047 107.803 98.4623 106.43C99.2324 105.057 100.293 103.98 101.644 103.199C102.995 102.418 104.561 102.028 106.341 102.028ZM107.629 119.071C108.866 118.907 109.883 118.448 110.678 117.692C111.474 116.936 112.023 115.935 112.326 114.688C112.629 113.428 112.66 111.985 112.421 110.36C112.168 108.685 111.695 107.287 111 106.166C110.318 105.045 109.46 104.232 108.424 103.728C107.389 103.224 106.246 103.054 104.996 103.218C103.759 103.382 102.743 103.842 101.947 104.597C101.152 105.353 100.596 106.361 100.28 107.621C99.9774 108.868 99.9521 110.31 100.205 111.948C100.445 113.61 100.912 115.002 101.606 116.124C102.301 117.245 103.165 118.057 104.201 118.561C105.236 119.065 106.379 119.235 107.629 119.071ZM123.934 92.939V117.767C123.934 118.057 124.003 118.278 124.142 118.429C124.294 118.58 124.496 118.687 124.748 118.75L125.771 118.939C125.973 118.977 126.118 119.033 126.207 119.109C126.308 119.185 126.358 119.292 126.358 119.43C126.358 119.556 126.301 119.663 126.188 119.751C126.087 119.827 125.929 119.865 125.714 119.865H119.464C119.262 119.865 119.111 119.827 119.01 119.751C118.909 119.663 118.858 119.556 118.858 119.43C118.858 119.304 118.902 119.204 118.991 119.128C119.092 119.052 119.237 118.989 119.426 118.939L120.506 118.75C120.758 118.687 120.954 118.58 121.093 118.429C121.245 118.278 121.32 118.063 121.32 117.786V95.0552C121.32 94.8158 121.276 94.6457 121.188 94.5451C121.099 94.4317 120.948 94.3687 120.733 94.3561L119.161 94.3372C118.972 94.312 118.833 94.2678 118.745 94.205C118.669 94.1419 118.631 94.06 118.631 93.9593C118.631 93.8459 118.669 93.7515 118.745 93.6759C118.833 93.5876 118.984 93.512 119.199 93.4491L122.04 92.5044C122.343 92.4036 122.589 92.3343 122.779 92.2965C122.968 92.246 123.126 92.2209 123.252 92.2209C123.479 92.2209 123.65 92.2838 123.763 92.4099C123.877 92.5233 123.934 92.6995 123.934 92.939ZM143.336 116.879L143.279 116.728V95.0552C143.279 94.8158 143.235 94.6457 143.146 94.5451C143.058 94.4317 142.906 94.3687 142.692 94.3561L141.12 94.3372C140.93 94.312 140.791 94.2678 140.703 94.205C140.627 94.1419 140.589 94.06 140.589 93.9593C140.589 93.8459 140.627 93.7515 140.703 93.6759C140.791 93.5876 140.943 93.512 141.158 93.4491L143.998 92.5044C144.301 92.4036 144.548 92.3343 144.737 92.2965C144.927 92.246 145.091 92.2209 145.23 92.2209C145.457 92.2209 145.621 92.2838 145.722 92.4099C145.836 92.5233 145.892 92.6995 145.892 92.939V117.767C145.892 118.057 145.962 118.278 146.101 118.429C146.252 118.58 146.454 118.687 146.707 118.75L147.73 118.939C147.931 118.977 148.083 119.033 148.184 119.109C148.285 119.185 148.336 119.292 148.336 119.43C148.336 119.556 148.279 119.663 148.165 119.751C148.064 119.827 147.9 119.865 147.673 119.865H144.718C144.251 119.865 143.904 119.751 143.676 119.525C143.449 119.298 143.336 118.926 143.336 118.41V116.879ZM129.453 111.475C129.453 109.51 129.832 107.822 130.589 106.411C131.36 105 132.382 103.917 133.658 103.161C134.945 102.393 136.36 102.009 137.9 102.009C139.39 102.009 140.722 102.387 141.896 103.142C143.07 103.898 143.998 104.95 144.68 106.298L144.131 107.073C143.474 105.851 142.628 104.912 141.593 104.257C140.558 103.59 139.447 103.256 138.26 103.256C137.136 103.256 136.12 103.552 135.211 104.144C134.302 104.736 133.575 105.618 133.033 106.789C132.502 107.961 132.237 109.409 132.237 111.135C132.237 112.798 132.49 114.202 132.995 115.349C133.5 116.483 134.188 117.352 135.059 117.956C135.943 118.548 136.94 118.844 138.052 118.844C139.163 118.844 140.223 118.536 141.233 117.919C142.256 117.301 143.178 116.394 143.998 115.198L144.377 116.029C143.43 117.402 142.332 118.454 141.082 119.185C139.844 119.903 138.519 120.262 137.105 120.262C135.627 120.262 134.308 119.89 133.146 119.147C131.997 118.391 131.094 117.352 130.438 116.029C129.781 114.706 129.453 113.188 129.453 111.475Z" fill="url(#paint0_linear_1325_95)"/>
<mask id="mask0_1325_95" style="mask-type:luminance" maskUnits="userSpaceOnUse" x="58" y="0" width="55" height="81">
<path d="M96.313 80.5376C85.775 80.5376 76.7848 76.5937 69.3426 68.7076C61.8651 60.858 58.127 51.3755 58.127 40.2589C58.127 29.1607 61.8651 19.6781 69.3426 11.8299C76.7848 3.94301 85.775 0 96.313 0C101.495 0 106.444 1.06993 111.179 3.19254L110.075 5.87763C105.696 3.94293 101.102 2.96601 96.313 2.96601C86.5394 2.96601 78.2077 6.60953 71.3359 13.9137C64.4109 21.1805 60.958 29.9686 60.958 40.2589C60.958 50.5304 64.4109 59.3182 71.3359 66.6224C78.2077 73.908 86.5394 77.5702 96.313 77.5702C100.836 77.5702 105.162 76.7065 109.291 74.9795V41.4789H80.0123V38.5128H112.122V76.9688L111.233 77.3453C106.497 79.4666 101.53 80.5376 96.313 80.5376Z" fill="white"/>
</mask>
<g mask="url(#mask0_1325_95)">
<path d="M112.122 0H58.127V80.5376H112.122V0Z" fill="url(#paint1_linear_1325_95)"/>
</g>
<mask id="mask1_1325_95" style="mask-type:luminance" maskUnits="userSpaceOnUse" x="36" y="0" width="56" height="80">
<path d="M36.3633 0.769531V79.7675H53.6678C63.9763 79.7675 72.7886 75.8989 80.1234 68.1625C87.4219 60.4643 91.0719 51.1694 91.0719 40.2592C91.0719 29.3689 87.4219 20.0742 80.1234 12.3745C72.7886 4.63807 63.9765 0.769531 53.6678 0.769531H36.3633ZM39.1768 76.8V3.73693H53.6678C63.2106 3.73693 71.3642 7.30461 78.1287 14.4209C84.9115 21.5563 88.3128 30.1752 88.3128 40.2592C88.3128 50.3618 84.9115 58.9811 78.1287 66.1161C71.3642 73.2324 63.2106 76.8 53.6678 76.8H39.1768Z" fill="white"/>
</mask>
<g mask="url(#mask1_1325_95)">
<path d="M91.0719 0.769531H36.3633V79.7675H91.0719V0.769531Z" fill="url(#paint2_linear_1325_95)"/>
</g>
<defs>
<linearGradient id="paint0_linear_1325_95" x1="60.6056" y1="92.9651" x2="62.8678" y2="120.931" gradientUnits="userSpaceOnUse">
<stop stop-color="#FAE571"/>
<stop offset="1" stop-color="#A4631B"/>
</linearGradient>
<linearGradient id="paint1_linear_1325_95" x1="85.0688" y1="-15.2925" x2="85.1754" y2="80.2439" gradientUnits="userSpaceOnUse">
<stop stop-color="#FFFB90"/>
<stop offset="0.13" stop-color="#FBEC7A"/>
<stop offset="0.24" stop-color="#F8DC65"/>
<stop offset="0.33" stop-color="#C8A443"/>
<stop offset="0.49" stop-color="#996C22"/>
<stop offset="0.62" stop-color="#CAAA4D"/>
<stop offset="0.69" stop-color="#FBE878"/>
<stop offset="0.73" stop-color="#FDF491"/>
<stop offset="0.77" stop-color="#FFFFAA"/>
<stop offset="0.8" stop-color="#FDF491"/>
<stop offset="0.83" stop-color="#FBE878"/>
<stop offset="0.92" stop-color="#D0A549"/>
<stop offset="1" stop-color="#A4631B"/>
</linearGradient>
<linearGradient id="paint2_linear_1325_95" x1="63.6712" y1="-14.23" x2="63.76" y2="79.47" gradientUnits="userSpaceOnUse">
<stop stop-color="#FFFB90"/>
<stop offset="0.13" stop-color="#FBEC7A"/>
<stop offset="0.24" stop-color="#F8DC65"/>
<stop offset="0.33" stop-color="#C8A443"/>
<stop offset="0.466346" stop-color="#996C22"/>
<stop offset="0.62" stop-color="#CAAA4D"/>
<stop offset="0.69" stop-color="#FBE878"/>
<stop offset="0.73" stop-color="#FDF491"/>
<stop offset="0.77" stop-color="#FFFFAA"/>
<stop offset="0.8" stop-color="#FDF491"/>
<stop offset="0.83" stop-color="#FBE878"/>
<stop offset="0.92" stop-color="#D0A549"/>
<stop offset="0.975962" stop-color="#A4631B"/>
</linearGradient>
</defs>
</svg>
