<svg width="100" height="87" viewBox="0 0 100 87" fill="none" xmlns="http://www.w3.org/2000/svg">
<path d="M1.49023 79.901C1.49023 79.724 1.62071 79.6102 1.88165 79.5596L2.8665 79.4079C3.0601 79.3657 3.20741 79.2941 3.30842 79.1929C3.41784 79.0917 3.47256 78.961 3.47256 78.8009V63.9426C3.47256 63.774 3.41784 63.6391 3.30842 63.538C3.20741 63.4368 3.0601 63.3651 2.8665 63.323L1.88165 63.1713C1.62071 63.1207 1.49023 63.0069 1.49023 62.8298C1.49023 62.7287 1.5239 62.6528 1.59124 62.6022C1.667 62.5431 1.77643 62.5137 1.91953 62.5137H7.47508C9.05758 62.5137 10.4885 62.7413 11.768 63.1965C13.0559 63.6518 14.1628 64.2967 15.0887 65.1313C16.0147 65.9659 16.7259 66.948 17.2226 68.0776C17.7276 69.2072 17.9801 70.4507 17.9801 71.808C17.9801 73.435 17.614 74.8808 16.8816 76.1454C16.1493 77.4099 15.0845 78.4047 13.6872 79.1297C12.2983 79.8546 10.6064 80.2172 8.61145 80.2172H1.91953C1.77643 80.2172 1.667 80.1876 1.59124 80.1287C1.5239 80.0696 1.49023 79.9937 1.49023 79.901ZM8.59882 79.4964C10.114 79.4964 11.4145 79.1929 12.5003 78.5859C13.5946 77.9705 14.4322 77.0853 15.013 75.9304C15.6022 74.767 15.8968 73.3634 15.8968 71.7195C15.8968 70.4465 15.6948 69.2916 15.2907 68.2547C14.8951 67.2093 14.3185 66.3157 13.5609 65.5739C12.8117 64.8235 11.9027 64.2461 10.8337 63.8415C9.77306 63.4368 8.58198 63.2345 7.26044 63.2345H5.417V78.5733C5.417 78.8852 5.51801 79.117 5.72003 79.2688C5.93047 79.4205 6.25455 79.4964 6.69225 79.4964H8.59882ZM26.8876 79.7999C28.0071 80.0022 28.8826 80.2509 29.5139 80.546C30.1452 80.841 30.5912 81.1909 30.8523 81.5955C31.1215 82.0002 31.2563 82.4638 31.2563 82.9865C31.2563 83.9896 30.7386 84.8116 29.7033 85.4524C28.6763 86.093 27.2033 86.4134 25.2841 86.4134C23.9457 86.4134 22.8556 86.2785 22.0139 86.0088C21.1805 85.739 20.5618 85.3722 20.1578 84.9086C19.7622 84.4534 19.5644 83.9433 19.5644 83.3785C19.5644 82.6535 19.9179 81.9917 20.625 81.3932C21.3404 80.7946 22.5778 80.3816 24.3371 80.154L24.6401 80.508C23.4364 80.6429 22.5273 80.9506 21.9129 81.4311C21.3068 81.9117 21.0038 82.4596 21.0038 83.075C21.0038 83.8505 21.3488 84.4871 22.0391 84.9845C22.7293 85.4818 23.8952 85.7306 25.5366 85.7306C26.4625 85.7306 27.2327 85.6335 27.8472 85.4397C28.4616 85.2542 28.9204 84.9845 29.2235 84.6304C29.5349 84.2847 29.6906 83.8758 29.6906 83.4038C29.6906 83.0665 29.5854 82.7589 29.375 82.4807C29.173 82.2025 28.7983 81.9496 28.2512 81.722C27.7125 81.4944 26.9381 81.2878 25.928 81.1024C24.7074 80.8747 23.7857 80.6471 23.1629 80.4195C22.5399 80.1919 22.119 79.9516 21.9002 79.6987C21.6813 79.4458 21.5719 79.155 21.5719 78.8262C21.5719 78.5817 21.6308 78.3457 21.7487 78.1181C21.875 77.8819 22.0854 77.667 22.38 77.4731C22.6831 77.2708 23.0997 77.0979 23.63 76.9547L24.0088 77.1064C23.6468 77.2835 23.3901 77.4562 23.2386 77.6249C23.0871 77.7934 23.0113 77.9747 23.0113 78.1686C23.0113 78.3372 23.0829 78.5058 23.226 78.6745C23.3775 78.8346 23.7268 79.0074 24.274 79.1929C24.821 79.3699 25.6923 79.5723 26.8876 79.7999ZM27.7083 69.5572L28.0997 68.9249C28.428 68.36 28.7983 67.9343 29.2108 67.6477C29.6316 67.3526 30.0694 67.2051 30.524 67.2051C30.9448 67.2051 31.2857 67.3189 31.5467 67.5465C31.8076 67.7657 31.9381 68.0524 31.9381 68.4064C31.9381 68.693 31.8665 68.9249 31.7235 69.1019C31.5887 69.2705 31.3993 69.3548 31.1553 69.3548C30.9785 69.3548 30.8311 69.3042 30.7134 69.2031C30.5955 69.1019 30.4902 68.9881 30.3977 68.8617C30.3135 68.7267 30.2167 68.6088 30.1073 68.5076C29.9978 68.4064 29.8548 68.3558 29.678 68.3558C29.4591 68.3558 29.2445 68.4444 29.0341 68.6214C28.8236 68.7984 28.5458 69.1609 28.2007 69.7089L27.7083 69.5572ZM30.2714 72.7944C30.2714 73.7385 30.0442 74.5689 29.5896 75.2855C29.1351 76.002 28.5164 76.5627 27.7336 76.9673C26.9591 77.3635 26.0795 77.5617 25.0947 77.5617C24.1182 77.5617 23.2512 77.3635 22.4937 76.9673C21.7361 76.5711 21.1384 76.0316 20.7007 75.3487C20.2714 74.6659 20.0568 73.9029 20.0568 73.0599C20.0568 72.1073 20.2798 71.2769 20.726 70.5688C21.1805 69.8521 21.7992 69.2916 22.5821 68.887C23.3649 68.4823 24.2487 68.28 25.2336 68.28C26.2184 68.28 27.0854 68.4781 27.8346 68.8743C28.5922 69.2705 29.1856 69.8101 29.6149 70.4929C30.0526 71.1758 30.2714 71.9429 30.2714 72.7944ZM24.9053 68.9628C24.2487 68.9712 23.6932 69.1314 23.2386 69.4433C22.7841 69.7468 22.4432 70.1809 22.2159 70.7458C21.9886 71.3106 21.8917 71.9851 21.9255 72.7691C21.9507 73.5952 22.1106 74.3202 22.4053 74.9441C22.7083 75.5594 23.1165 76.04 23.63 76.3856C24.1518 76.7228 24.7495 76.883 25.423 76.8662C26.3993 76.8493 27.1485 76.5036 27.6704 75.8293C28.2007 75.1548 28.4448 74.2317 28.4028 73.0599C28.3606 71.8122 28.0197 70.8132 27.38 70.063C26.7487 69.3126 25.9238 68.9459 24.9053 68.9628ZM36.779 68.8743V78.8136C36.779 79.0074 36.8254 79.155 36.9179 79.2561C37.0105 79.3573 37.1452 79.4289 37.3219 79.4711L38.0038 79.5976C38.1385 79.6229 38.2353 79.6608 38.2942 79.7114C38.3615 79.7619 38.3952 79.8336 38.3952 79.9263C38.3952 80.0106 38.3573 80.0822 38.2815 80.1413C38.2143 80.1919 38.109 80.2172 37.9659 80.2172H33.7992C33.6646 80.2172 33.5593 80.1919 33.4836 80.1413C33.4163 80.0822 33.3826 80.0106 33.3826 79.9263C33.3826 79.842 33.412 79.7746 33.4709 79.724C33.5383 79.6734 33.6351 79.6355 33.7613 79.6102L34.4937 79.4711C34.6621 79.4289 34.7926 79.3573 34.8851 79.2561C34.9777 79.155 35.024 79.0116 35.024 78.8262V70.2906C35.024 70.1388 34.9946 70.025 34.9356 69.9492C34.8851 69.8733 34.7883 69.8311 34.6452 69.8227L33.5846 69.8101C33.4583 69.8016 33.3699 69.7763 33.3194 69.7342C33.2689 69.692 33.2437 69.6372 33.2437 69.5698C33.2437 69.4854 33.2689 69.4181 33.3194 69.3675C33.3784 69.3169 33.4794 69.2663 33.6225 69.2157L35.5038 68.5961C35.7143 68.5202 35.8826 68.4697 36.0088 68.4444C36.1351 68.4106 36.2403 68.3938 36.3245 68.3938C36.476 68.3938 36.5896 68.4359 36.6654 68.5202C36.7411 68.6045 36.779 68.7226 36.779 68.8743ZM35.63 65.6497C35.226 65.6497 34.8893 65.5233 34.6199 65.2704C34.359 65.0175 34.2285 64.7055 34.2285 64.3346C34.2285 63.9553 34.359 63.6433 34.6199 63.3989C34.8893 63.146 35.226 63.0195 35.63 63.0195C36.0509 63.0195 36.3919 63.146 36.6528 63.3989C36.9222 63.6433 37.0568 63.9553 37.0568 64.3346C37.0568 64.7055 36.9222 65.0175 36.6528 65.2704C36.3835 65.5233 36.0426 65.6497 35.63 65.6497ZM61.0299 80.0275C61.0299 80.2551 60.9921 80.4153 60.9163 80.508C60.849 80.6007 60.7438 80.6471 60.6006 80.6471C60.4491 80.6471 60.3271 80.5839 60.2345 80.4574C60.142 80.3394 60.0619 80.2003 59.9946 80.0402C59.9273 79.8799 59.8557 79.7367 59.7799 79.6102C59.7127 79.4838 59.62 79.4205 59.5022 79.4205C59.3506 79.4205 59.1571 79.4838 58.9213 79.6102C58.6857 79.7367 58.391 79.8799 58.0375 80.0402C57.684 80.1919 57.2463 80.331 56.7244 80.4574C56.2109 80.5839 55.6006 80.6471 54.8936 80.6471C53.5468 80.6471 52.3347 80.4195 51.2572 79.9643C50.1882 79.5005 49.2749 78.8556 48.5173 78.0295C47.7682 77.2033 47.1915 76.2297 46.7875 75.1085C46.392 73.9872 46.1941 72.7606 46.1941 71.4287C46.1941 70.0798 46.4003 68.8405 46.8128 67.7109C47.2337 66.5813 47.8271 65.5992 48.5931 64.7646C49.3591 63.93 50.2556 63.2851 51.2825 62.8298C52.3178 62.3661 53.4458 62.1343 54.6663 62.1343C55.6175 62.1343 56.3961 62.2355 57.0022 62.4378C57.6082 62.6317 58.0754 62.8298 58.4037 63.0322C58.732 63.226 58.9718 63.323 59.1234 63.323C59.3001 63.323 59.4223 63.2429 59.4895 63.0827C59.5653 62.9141 59.6369 62.7497 59.7042 62.5896C59.7715 62.4209 59.8936 62.3367 60.0703 62.3367C60.163 62.3367 60.2387 62.3661 60.2976 62.4252C60.3566 62.4758 60.4071 62.5684 60.4491 62.7034L61.7749 66.9649C61.817 67.0913 61.8086 67.2051 61.7496 67.3063C61.6991 67.3989 61.6107 67.4495 61.4845 67.458C61.3751 67.4748 61.2741 67.458 61.1814 67.4074C61.0973 67.3569 61.0299 67.2767 60.9794 67.1672C60.4996 66.1471 59.9567 65.3251 59.3506 64.7013C58.7446 64.0691 58.0586 63.6096 57.2926 63.323C56.5266 63.0279 55.6723 62.8804 54.7294 62.8804C53.4921 62.8804 52.3768 63.2133 51.3835 63.8794C50.3986 64.5453 49.6158 65.4811 49.035 66.6867C48.4627 67.8921 48.1764 69.3084 48.1764 70.9355C48.1764 72.7732 48.4921 74.3497 49.1234 75.6649C49.7547 76.9715 50.6133 77.9747 51.6991 78.6745C52.785 79.3741 54.0056 79.724 55.3607 79.724C55.9248 79.724 56.4425 79.6818 56.9138 79.5976C57.3852 79.5048 57.7892 79.3699 58.1259 79.1929C58.4627 79.0159 58.7236 78.8009 58.9087 78.548C59.094 78.2866 59.1865 77.9874 59.1865 77.6502V74.3371C59.1865 74.1263 59.1276 73.9661 59.0097 73.8566C58.9003 73.7469 58.6857 73.6669 58.3658 73.6163L57.2799 73.4519C57.1369 73.4266 57.0233 73.3844 56.939 73.3255C56.8633 73.2664 56.8254 73.1948 56.8254 73.1105C56.8254 73.0177 56.8633 72.9461 56.939 72.8955C57.0233 72.8449 57.1453 72.8197 57.3052 72.8197H62.4946C62.6546 72.8197 62.7724 72.8449 62.8481 72.8955C62.9239 72.9461 62.9617 73.0177 62.9617 73.1105C62.9617 73.1948 62.9324 73.2622 62.8734 73.3128C62.8145 73.3549 62.7051 73.4013 62.5451 73.4519L61.838 73.6037C61.535 73.671 61.3246 73.7554 61.2067 73.8566C61.0889 73.9577 61.0299 74.1179 61.0299 74.3371V80.0275ZM70.8947 68.28C72.0563 68.28 73.0874 68.5413 73.9881 69.064C74.8887 69.5782 75.5916 70.2947 76.0967 71.2137C76.6018 72.1326 76.8543 73.1905 76.8543 74.3877C76.8543 75.5678 76.5975 76.6174 76.0841 77.5364C75.579 78.4552 74.8761 79.176 73.9755 79.6987C73.0748 80.2213 72.031 80.4827 70.8442 80.4827C69.6826 80.4827 68.6556 80.2256 67.7634 79.7114C66.871 79.1887 66.1682 78.4679 65.6548 77.549C65.1412 76.6217 64.8846 75.5678 64.8846 74.3877C64.8846 73.199 65.1371 72.1452 65.6421 71.2263C66.1556 70.3074 66.8627 69.5866 67.7634 69.064C68.664 68.5413 69.7078 68.28 70.8947 68.28ZM71.7533 79.6861C72.5781 79.5764 73.2558 79.2688 73.7861 78.763C74.3164 78.2572 74.6826 77.587 74.8846 76.7524C75.0866 75.9093 75.1076 74.9441 74.9477 73.8566C74.7793 72.7353 74.4637 71.7995 74.0007 71.0493C73.5462 70.299 72.9738 69.7552 72.2836 69.4181C71.5933 69.0808 70.8315 68.967 69.9982 69.0766C69.1733 69.1862 68.4957 69.4939 67.9654 69.9997C67.4351 70.5056 67.0647 71.1799 66.8543 72.023C66.6523 72.8576 66.6354 73.8228 66.8038 74.9188C66.9637 76.0316 67.2751 76.9631 67.7381 77.7134C68.201 78.4636 68.7776 79.0074 69.4679 79.3447C70.1581 79.6818 70.9199 79.7956 71.7533 79.6861ZM82.6233 62.1976V78.8136C82.6233 79.0074 82.6695 79.155 82.7621 79.2561C82.8632 79.3573 82.9978 79.4289 83.1662 79.4711L83.848 79.5976C83.9827 79.6229 84.0794 79.6608 84.1384 79.7114C84.2057 79.7619 84.2394 79.8336 84.2394 79.9263C84.2394 80.0106 84.2015 80.0822 84.1258 80.1413C84.0584 80.1919 83.9532 80.2172 83.8101 80.2172H79.6435C79.5087 80.2172 79.4077 80.1919 79.3404 80.1413C79.2731 80.0822 79.2394 80.0106 79.2394 79.9263C79.2394 79.842 79.2688 79.7746 79.3278 79.724C79.3951 79.6734 79.492 79.6313 79.6182 79.5976L80.3379 79.4711C80.5062 79.4289 80.6367 79.3573 80.7293 79.2561C80.8303 79.155 80.8808 79.0116 80.8808 78.8262V63.6138C80.8808 63.4536 80.8513 63.3398 80.7925 63.2724C80.7335 63.1965 80.6325 63.1544 80.4894 63.146L79.4414 63.1333C79.3152 63.1164 79.2226 63.0869 79.1637 63.0448C79.1132 63.0026 79.0879 62.9478 79.0879 62.8804C79.0879 62.8045 79.1132 62.7413 79.1637 62.6907C79.2226 62.6317 79.3236 62.5811 79.4667 62.539L81.3606 61.9067C81.5627 61.8392 81.7268 61.7929 81.8531 61.7676C81.9793 61.7338 82.0845 61.717 82.1687 61.717C82.3202 61.717 82.4339 61.7591 82.5096 61.8435C82.5854 61.9194 82.6233 62.0373 82.6233 62.1976ZM95.5577 78.2192L95.5198 78.1181V63.6138C95.5198 63.4536 95.4903 63.3398 95.4314 63.2724C95.3725 63.1965 95.2714 63.1544 95.1284 63.146L94.0804 63.1333C93.9542 63.1164 93.8615 63.0869 93.8027 63.0448C93.7522 63.0026 93.7269 62.9478 93.7269 62.8804C93.7269 62.8045 93.7522 62.7413 93.8027 62.6907C93.8615 62.6317 93.9626 62.5811 94.1057 62.539L95.9996 61.9067C96.2016 61.8392 96.3658 61.7929 96.4921 61.7676C96.6183 61.7338 96.7277 61.717 96.8203 61.717C96.9718 61.717 97.0812 61.7591 97.1486 61.8435C97.2244 61.9194 97.2623 62.0373 97.2623 62.1976V78.8136C97.2623 79.0074 97.3085 79.155 97.4011 79.2561C97.5022 79.3573 97.6368 79.4289 97.8052 79.4711L98.487 79.5976C98.6216 79.6229 98.7227 79.6608 98.79 79.7114C98.8573 79.7619 98.891 79.8336 98.891 79.9263C98.891 80.0106 98.8532 80.0822 98.7774 80.1413C98.71 80.1919 98.6006 80.2172 98.4491 80.2172H96.4794C96.1679 80.2172 95.9365 80.1413 95.785 79.9896C95.6335 79.8378 95.5577 79.5891 95.5577 79.2435V78.2192ZM86.3027 74.6027C86.3027 73.2875 86.5552 72.1579 87.0602 71.2137C87.5737 70.2694 88.2555 69.5445 89.1057 69.0387C89.9643 68.5244 90.907 68.2673 91.934 68.2673C92.9272 68.2673 93.8153 68.5202 94.5981 69.026C95.3809 69.5319 95.9996 70.2358 96.4542 71.1378L96.088 71.6563C95.6502 70.8385 95.0863 70.2105 94.3961 69.7721C93.7058 69.3253 92.9651 69.1019 92.1739 69.1019C91.4247 69.1019 90.7471 69.3 90.141 69.6963C89.535 70.0924 89.0509 70.6826 88.689 71.4666C88.3355 72.2506 88.1587 73.2201 88.1587 74.375C88.1587 75.4878 88.327 76.4277 88.6638 77.1949C89.0004 77.9537 89.4592 78.5354 90.04 78.94C90.6292 79.3362 91.2942 79.5343 92.035 79.5343C92.7757 79.5343 93.4828 79.3278 94.1562 78.9147C94.838 78.5016 95.4525 77.8946 95.9996 77.0938L96.2521 77.6502C95.6208 78.569 94.8885 79.2729 94.0552 79.762C93.2302 80.2425 92.3464 80.4827 91.4037 80.4827C90.4188 80.4827 89.5391 80.234 88.7648 79.7367C87.9987 79.2308 87.3969 78.5354 86.9592 77.6502C86.5214 76.765 86.3027 75.7491 86.3027 74.6027Z" fill="url(#paint0_linear_1325_95)"/>
<mask id="mask0_1325_95" style="mask-type:luminance" maskUnits="userSpaceOnUse" x="38" y="0" width="37" height="54">
<path d="M64.2074 53.8982C57.182 53.8982 51.1886 51.2589 46.2271 45.9812C41.2421 40.728 38.75 34.3821 38.75 26.9425C38.75 19.5152 41.2421 13.1692 46.2271 7.91695C51.1886 2.63878 57.182 0 64.2074 0C67.6618 0 70.9611 0.716029 74.118 2.13655L73.3818 3.93349C70.4626 2.63873 67.4001 1.98495 64.2074 1.98495C57.6916 1.98495 52.1372 4.4233 47.556 9.31149C42.9393 14.1746 40.6374 20.0559 40.6374 26.9425C40.6374 33.8165 42.9393 39.6976 47.556 44.5858C52.1372 49.4615 57.6916 51.9124 64.2074 51.9124C67.2225 51.9124 70.1067 51.3343 72.8594 50.1786V27.759H53.3402V25.774H74.7468V51.5099L74.1538 51.7619C70.9965 53.1815 67.6854 53.8982 64.2074 53.8982Z" fill="white"/>
</mask>
<g mask="url(#mask0_1325_95)">
<path d="M74.7468 0H38.75V53.8982H74.7468V0Z" fill="url(#paint1_linear_1325_95)"/>
</g>
<mask id="mask1_1325_95" style="mask-type:luminance" maskUnits="userSpaceOnUse" x="24" y="0" width="37" height="54">
<path d="M24.2422 0.514893V53.3827H35.7786C42.6509 53.3827 48.5257 50.7938 53.4156 45.6164C58.2813 40.4644 60.7146 34.2441 60.7146 26.9426C60.7146 19.6545 58.2813 13.4342 53.4156 8.28129C48.5257 3.10384 42.651 0.514893 35.7786 0.514893H24.2422ZM26.1178 51.3968V2.50077H35.7786C42.1404 2.50077 47.5761 4.88837 52.0858 9.6508C56.6076 14.4261 58.8752 20.1941 58.8752 26.9426C58.8752 33.7035 56.6076 39.4718 52.0858 44.2468C47.5761 49.0093 42.1404 51.3968 35.7786 51.3968H26.1178Z" fill="white"/>
</mask>
<g mask="url(#mask1_1325_95)">
<path d="M60.7146 0.514893H24.2422V53.3827H60.7146V0.514893Z" fill="url(#paint2_linear_1325_95)"/>
</g>
<defs>
<linearGradient id="paint0_linear_1325_95" x1="40.4044" y1="62.2151" x2="41.9241" y2="80.9298" gradientUnits="userSpaceOnUse">
<stop stop-color="#FAE571"/>
<stop offset="1" stop-color="#A4631B"/>
</linearGradient>
<linearGradient id="paint1_linear_1325_95" x1="56.7112" y1="-10.2342" x2="56.7828" y2="53.7017" gradientUnits="userSpaceOnUse">
<stop stop-color="#FFFB90"/>
<stop offset="0.13" stop-color="#FBEC7A"/>
<stop offset="0.24" stop-color="#F8DC65"/>
<stop offset="0.33" stop-color="#C8A443"/>
<stop offset="0.49" stop-color="#996C22"/>
<stop offset="0.62" stop-color="#CAAA4D"/>
<stop offset="0.69" stop-color="#FBE878"/>
<stop offset="0.73" stop-color="#FDF491"/>
<stop offset="0.77" stop-color="#FFFFAA"/>
<stop offset="0.8" stop-color="#FDF491"/>
<stop offset="0.83" stop-color="#FBE878"/>
<stop offset="0.92" stop-color="#D0A549"/>
<stop offset="1" stop-color="#A4631B"/>
</linearGradient>
<linearGradient id="paint2_linear_1325_95" x1="42.4474" y1="-9.52327" x2="42.5071" y2="53.1836" gradientUnits="userSpaceOnUse">
<stop stop-color="#FFFB90"/>
<stop offset="0.13" stop-color="#FBEC7A"/>
<stop offset="0.24" stop-color="#F8DC65"/>
<stop offset="0.33" stop-color="#C8A443"/>
<stop offset="0.466346" stop-color="#996C22"/>
<stop offset="0.62" stop-color="#CAAA4D"/>
<stop offset="0.69" stop-color="#FBE878"/>
<stop offset="0.73" stop-color="#FDF491"/>
<stop offset="0.77" stop-color="#FFFFAA"/>
<stop offset="0.8" stop-color="#FDF491"/>
<stop offset="0.83" stop-color="#FBE878"/>
<stop offset="0.92" stop-color="#D0A549"/>
<stop offset="0.975962" stop-color="#A4631B"/>
</linearGradient>
</defs>
</svg>
